<svg width="600" height="600" xmlns="http://www.w3.org/2000/svg">
 <defs>
  <radialGradient id="SvgjsRadialGradient2886" cx="100" cy="114" r="41" gradientUnits="userSpaceOnUse" class="svga-on-canvas-facehighlight-gradient-single-0">
   <stop id="SvgjsStop2887" stop-opacity="0.5" stop-color="#fab68e" offset="0"/>
   <stop id="SvgjsStop2888" stop-opacity="0" stop-color="#eb9c6e" offset="0.9"/>
  </radialGradient>
  <radialGradient id="SvgjsRadialGradient2890" cx="100" cy="54" r="37" gradientUnits="userSpaceOnUse" class="svga-on-canvas-facehighlight-gradient-single-1">
   <stop id="SvgjsStop2891" stop-opacity="0.5" stop-color="#fab68e" offset="0"/>
   <stop id="SvgjsStop2892" stop-opacity="0" stop-color="#eb9c6e" offset="0.9"/>
  </radialGradient>
  <radialGradient id="SvgjsRadialGradient5225" cx="126.289" cy="84.919" r="10.712" gradientTransform="matrix(-1 0 0 1 200 0)" gradientUnits="userSpaceOnUse" class="svga-on-canvas-eyesback-gradient-left-0">
   <stop id="SvgjsStop5226" stop-color="#ffffff" offset="0"/>
   <stop id="SvgjsStop5227" stop-color="#fdfefe" offset="0.544"/>
   <stop id="SvgjsStop5228" stop-color="#f6f8f9" offset="0.74"/>
   <stop id="SvgjsStop5229" stop-color="#eaeff2" offset="0.879"/>
   <stop id="SvgjsStop5230" stop-color="#d9e3e8" offset="0.992"/>
   <stop id="SvgjsStop5231" stop-color="#d8e2e7" offset="1"/>
  </radialGradient>
  <radialGradient id="SvgjsRadialGradient5233" cx="125.89" cy="84.919" r="10.712" gradientUnits="userSpaceOnUse" class="svga-on-canvas-eyesback-gradient-right-0">
   <stop id="SvgjsStop5234" stop-color="#ffffff" offset="0"/>
   <stop id="SvgjsStop5235" stop-color="#fdfefe" offset="0.544"/>
   <stop id="SvgjsStop5236" stop-color="#f6f8f9" offset="0.74"/>
   <stop id="SvgjsStop5237" stop-color="#eaeff2" offset="0.879"/>
   <stop id="SvgjsStop5238" stop-color="#d9e3e8" offset="0.992"/>
   <stop id="SvgjsStop5239" stop-color="#d8e2e7" offset="1"/>
  </radialGradient>
  <radialGradient id="SvgjsRadialGradient5251" cx="123.715" cy="85.489" fx="135.434" fy="85.522" r="16.667" gradientTransform="matrix(0.9998 0.0208 0.0166 -0.7998 -48.826 151.2907)" gradientUnits="userSpaceOnUse" class="svga-on-canvas-eyesfront-gradient-left-3">
   <stop id="SvgjsStop5252" stop-color="#dc8451" offset="0"/>
   <stop id="SvgjsStop5253" stop-opacity="0.3" stop-color="#dc8451" offset="0.7"/>
   <stop id="SvgjsStop5254" stop-opacity="0" stop-color="#eb9c6e" offset="1"/>
  </radialGradient>
  <radialGradient id="SvgjsRadialGradient5256" cx="122.874" cy="101.325" r="26.878" gradientTransform="matrix(-1 0 0 0.7923 200 21.0491)" gradientUnits="userSpaceOnUse" class="svga-on-canvas-eyesfront-gradient-left-4">
   <stop id="SvgjsStop5257" stop-opacity="0" stop-color="#000000" offset="0.95"/>
   <stop id="SvgjsStop5258" stop-opacity="0.2" stop-color="#000000" offset="1"/>
  </radialGradient>
  <radialGradient id="SvgjsRadialGradient5272" cx="123.315" cy="85.489" fx="135.034" fy="85.522" r="16.667" gradientTransform="matrix(-0.9998 0.0208 -0.0166 -0.7998 248.0273 151.299)" gradientUnits="userSpaceOnUse" class="svga-on-canvas-eyesfront-gradient-right-3">
   <stop id="SvgjsStop5273" stop-color="#dc8451" offset="0"/>
   <stop id="SvgjsStop5274" stop-opacity="0.3" stop-color="#dc8451" offset="0.7"/>
   <stop id="SvgjsStop5275" stop-opacity="0" stop-color="#eb9c6e" offset="1"/>
  </radialGradient>
  <radialGradient id="SvgjsRadialGradient5277" cx="122.475" cy="101.325" r="26.878" gradientTransform="matrix(1 0 0 0.7923 0 21.0491)" gradientUnits="userSpaceOnUse" class="svga-on-canvas-eyesfront-gradient-right-4">
   <stop id="SvgjsStop5278" stop-opacity="0" stop-color="#000000" offset="0.95"/>
   <stop id="SvgjsStop5279" stop-opacity="0.2" stop-color="#000000" offset="1"/>
  </radialGradient>
  <linearGradient id="SvgjsLinearGradient5491" x1="0.492634" y1="0.693945" x2="0.492634" y2="-0.270316" class="svga-on-canvas-mouth-gradient-single-0">
   <stop id="SvgjsStop5492" stop-color="#e3905f" offset="0.1"/>
   <stop id="SvgjsStop5493" stop-color="#dc8451" offset="1"/>
  </linearGradient>
  <linearGradient id="SvgjsLinearGradient5501" x1="0.5" y1="1.002728" x2="0.5" y2="-0.01527" class="svga-on-canvas-chinshadow-gradient-single-0">
   <stop id="SvgjsStop5502" stop-opacity="0.8" stop-color="#dc8451" offset="0"/>
   <stop id="SvgjsStop5503" stop-color="#bd5a20" offset="0.7"/>
  </linearGradient>
 </defs>
 <g>
  <title>background</title>
  <rect x="-1" y="-1" width="602" height="602" id="canvas_background" fill="none"/>
 </g>
 <g>
  <title>Layer 1</title>
  <ellipse fill="#0052a4" stroke="#000" stroke-width="0" cx="295" cy="295" id="svg_1" rx="279.5" ry="280"/>
  <g id="svga-group-wrapper" transform="scale(3) ">
   <g id="svga-group-backs-single"/>
   <g id="svga-group-subwrapper" transform="matrix(0.84999948,0,0,0.84999948,15.000125278204308,16.53862506746613) ">
    <g id="svga-group-hair-back">
     <path id="SvgjsPath5506" d="m100.5,100.5l-1,0l0,-1l1,0l0,1z" fill="#472513" stroke-width="none"/>
    </g>
    <g id="svga-group-humanbody-single">
     <path id="SvgjsPath2893" d="m195.417,199.778c-2.196,-4.746 -8.195,-11.779 -14.86,-13.722c-8.239,-2.403 -26.837,-5.308 -33.733,-6.923c-5.528,-1.296 -16.662,-11.294 -20.564,-14.65c-0.7,-0.6 -1.273,-1.839 -1.287,-2.76c-0.139,-10.864 4.195,-39.724 4.195,-39.724l-29.168,0l-29.167,0c0,0 4.334,28.859 4.193,39.724c-0.011,0.921 -0.587,2.16 -1.285,2.76c-3.902,3.356 -15.036,13.354 -20.564,14.65c-6.897,1.615 -25.495,4.619 -33.733,7.022c-6.667,1.942 -12.664,8.876 -14.86,13.622c-3.708,8.008 -4.584,22.5 -4.584,35l100,0l100,0c0,-12.499 -0.877,-26.991 -4.583,-34.999z" fill="#eb9c6e" stroke-width="none"/>
     <path id="SvgjsPath2894" d="m159.156,184.058c24.342,3.542 34.586,8.708 37.794,50.721l3.05,0c0,-12.5 -0.877,-26.992 -4.583,-35c-2.196,-4.746 -8.195,-11.779 -14.86,-13.722c-8.239,-2.403 -26.837,-5.308 -33.733,-6.923c-5.528,-1.296 -18.242,-12.069 -21.643,-16.35c3.36,4.704 12.791,15.605 21.054,18.46c3.953,1.366 7.245,1.988 12.921,2.814zm-105.39,-2.814c8.263,-2.854 17.693,-13.756 21.054,-18.46c-3.4,4.28 -16.114,15.054 -21.643,16.35c-6.896,1.615 -25.494,4.619 -33.733,7.022c-6.665,1.942 -12.664,8.876 -14.86,13.622c-3.706,8.008 -4.583,22.5 -4.583,35l3.05,0c3.188,-41.744 13.475,-47.183 37.794,-50.721c5.675,-0.825 8.968,-1.447 12.921,-2.813z" fill="#fab68e" stroke-width="none"/>
     <path id="SvgjsPath2895" d="m95.646,197.62c0,0 -5.074,-1.609 -7.083,-2.379c-10.449,-4.009 -44.395,-6.607 -44.395,-6.607s35.754,1.419 43.644,2.779c-0.458,-4.767 -3.017,-20.004 -3.017,-20.004s5.149,16.815 6.409,21.057c0.674,2.268 4.442,5.154 4.442,5.154zm10.799,-1.342c-0.089,0.073 -0.191,0.168 -0.302,0.268c0.113,-0.085 0.215,-0.174 0.302,-0.268zm-10.799,1.342c0,0 2.893,2.992 4.347,3.03c1.91,0.051 4.828,-2.899 6.151,-4.104c-1.265,0.957 -4.159,1.391 -5.31,1.436c-1.33,0.051 -5.188,-0.362 -5.188,-0.362zm21.018,-7.519c-1.545,0.248 -4.386,0.789 -4.386,0.789l2.287,-14.89c-0.646,3.071 -4.474,16.211 -8.12,20.278c1.91,-1.616 6.158,-2.391 8.324,-2.704c10.236,-1.484 10.232,-1.483 41.062,-4.94c0,0 -29.071,-0.155 -39.167,1.467z" fill="#dc8451" stroke-width="none"/>
     <path id="SvgjsPath2896" d="m195.417,199.778c-2.196,-4.746 -8.195,-11.779 -14.86,-13.722c-8.239,-2.403 -26.837,-5.308 -33.733,-6.923c-5.528,-1.296 -16.662,-11.294 -20.564,-14.65c-0.7,-0.6 -1.273,-1.839 -1.287,-2.76c-0.139,-10.864 4.195,-39.724 4.195,-39.724l-29.168,0l-29.167,0c0,0 4.334,28.859 4.193,39.724c-0.011,0.921 -0.587,2.16 -1.285,2.76c-3.902,3.356 -15.036,13.354 -20.564,14.65c-6.897,1.615 -25.495,4.619 -33.733,7.022c-6.667,1.942 -12.664,8.876 -14.86,13.622c-3.708,8.008 -4.584,22.5 -4.584,35l100,0l100,0c0,-12.499 -0.877,-26.991 -4.583,-34.999z" fill="none" stroke="#bd5a20" stroke-width="1.5"/>
    </g>
    <g id="svga-group-chinshadow-single">
     <path id="SvgjsPath5500" d="m75.517,163.052c6.979,4.54 16.307,8.814 24.485,8.814c7.828,0 17.345,-4.309 24.458,-8.869c-0.145,-0.428 -0.233,-0.862 -0.239,-1.264c-0.126,-9.877 3.345,-34.021 4.076,-38.983l-56.594,0c0.73,4.963 4.202,29.106 4.074,38.982c-0.005,0.414 -0.101,0.871 -0.26,1.32z" fill="url(#SvgjsLinearGradient5501)"/>
    </g>
    <g id="svga-group-clothes-single">
     <path id="SvgjsPath5479" d="m128.857,237.978l-58.137,0l0,-56.183c22.25,4.699 36.88,4.337 58.138,0l0,56.183l-0.001,0z" fill="#f3f1f3" stroke-width="none"/>
     <path id="SvgjsPath5480" d="m107.44,237.709c-2.775,0 -10.727,0.208 -16.512,-0.23l-0.01,-0.171c-0.818,-18.658 1.129,-30.719 4.537,-39.288l0.048,-0.123l-0.093,-0.093c-0.905,-0.904 -2.425,-1.935 -4.034,-3.025c-1.611,-1.093 -3.275,-2.221 -4.336,-3.246c0.625,-0.732 1.395,-1.454 2.348,-2.201c0.245,-0.125 1.162,-0.843 5.974,-4.971c0.214,-0.184 0.345,-0.296 0.362,-0.31c0.818,-0.178 2.138,-0.293 3.738,-0.293c2.183,0 4.731,0.221 6.512,0.563c1.561,1.458 3.451,5.329 4.158,7.17c-0.976,2.291 -2.128,3.129 -3.717,4.284c-0.774,0.563 -1.652,1.201 -2.652,2.112l-0.083,0.075l0.021,0.111c4.026,20.31 4.027,25.054 4.027,29.642c0.001,2.021 0.001,6.609 0.339,9.985c-0.15,0.007 -0.363,0.009 -0.627,0.009z" fill="#131111" stroke-width="none"/>
     <path id="SvgjsPath5481" d="m110.35,191.495c-0.754,-1.995 -2.71,-5.93 -4.28,-7.359c-2.876,-0.563 -7.983,-0.843 -10.47,-0.24c-0.108,0.088 -6.248,5.383 -6.31,5.26c-0.906,0.708 -1.788,1.504 -2.52,2.39c2.061,2.076 6.655,4.556 8.5,6.4c-3.65,9.18 -5.33,21.59 -4.55,39.38c0.01,0.11 0.01,0.23 0.02,0.34c6.756,0.52 16.55,0.331 17.55,0.223c-1.16,-11.307 1.438,-10.455 -4.39,-39.853c3.068,-2.795 4.965,-2.996 6.45,-6.541zm-5.25,19.04c-0.021,-0.05 -0.04,-0.1 -0.051,-0.13c2,10.55 1.38,18.632 2.891,26.972c-4.736,-0.318 -12.014,-0.052 -16.771,-0.052c0.369,-7.198 1.188,-31.684 4.74,-39.74c0.17,-0.046 0.339,-0.084 0.509,-0.125l-1.032,34.736l2.747,-35.066c0.02,-0.002 0.04,-0.005 0.06,-0.008l1.801,32.605l0.417,-32.734c0.026,0.001 0.051,-0.001 0.077,0l4.199,36.355l-2.3,-36.137c0.314,0.063 0.629,0.141 0.942,0.233c0.03,0 0.07,0.01 0.1,0.03c0.104,1.002 0.936,8.402 1.671,13.061zm-0.881,-13.809c-2.774,-1.251 -6.363,-1.026 -9.129,0.24c-1.681,-1.813 -4.08,-3.077 -7.53,-5.391c0.55,-0.479 1.26,-1.07 2.21,-1.81c0.08,0 3.48,-2.771 3.54,-2.83c0.92,-0.84 1.74,-1.79 2.52,-2.62c2.93,-0.12 7.23,0.02 9.82,0.14c1.5,1.876 2.931,4.696 4.01,6.94c-1.961,2.871 -3.901,4.15 -5.441,5.331z" fill="#000000" stroke-width="none"/>
     <path id="SvgjsPath5482" d="m78.196,213.077c-11.534,-40.071 -6.325,-29.581 -9.399,-45.32c2.028,-4.813 3.958,-10.44 5.042,-11.598l0.08,-0.086c2.292,24.007 8.958,13.636 23.784,27.722c-8.475,5.654 -16.331,20.332 -19.507,29.282zm52.997,-45.319c-1.448,-3.702 -4.077,-9.127 -5.215,-10.331c1.424,20.678 -15.146,16.551 -24.35,26.2c8.812,5.713 17.173,20.66 20.172,29.455c13.12,-43.514 6.05,-24.409 9.393,-45.324z" fill="#f3f1f4" stroke-width="none"/>
     <path id="SvgjsPath5483" d="m125.801,156.967c0,5.137 -0.42,9.162 -1.262,10.339c-2.443,5.809 -13.103,9.853 -16.39,11.51c-2.495,1.227 -4.942,2.809 -6.83,4.85c3.813,2.476 5.705,3.383 12.93,14.44c4.246,7.109 6.539,12.448 7.561,15.64c13.378,-44.331 6.222,-24.978 9.59,-46.01c-1.586,-4.086 -4.599,-9.851 -5.599,-10.769zm3.648,19.528c-1.957,18.078 -3.491,14.485 -7.74,34.181c-2.716,-8.644 -11.075,-22.913 -19.43,-27.091c3.937,-2.957 5.031,-3.131 9.729,-5.279c14.396,-6.42 14.985,-12.385 14.138,-20.271c1.207,1.423 3.125,6.161 4.692,9.521c-0.859,3.146 -1.249,7.638 -1.389,8.939zm-50.25,-4.599c-4.408,-3.649 -3.16,-8.162 -5.189,-16.215c-0.902,1 -3.146,6.632 -5.42,12.055c0.557,2.796 0.681,7.389 0.76,8.84c0.559,12.202 1.75,12.765 8.83,37.16c3.031,-8.905 11.558,-24.37 20.24,-30.009c-6.931,-6.326 -15.655,-8.728 -19.221,-11.831zm5.46,25.509c-2.221,3.666 -4.517,7.48 -6.37,13.28c-4.442,-20.269 -5.999,-16.964 -7.73,-34.16c-0.32,-2.971 -0.617,-6.027 -1.4,-8.96c1.638,-3.588 3.981,-10.281 4.731,-10.995c1.366,7.078 0.066,13.462 5.669,16.995c2.621,1.996 11.104,5.32 17.52,10.36c-3.891,2.31 -5.985,3.671 -12.42,13.48z" fill="#cfc8d7" stroke-width="none"/>
     <path id="SvgjsPath5484" d="m120.319,209.824l-1.209,-2.654c0,0 9.148,-28.175 10.743,-36.225c0.912,8.354 -9.534,38.879 -9.534,38.879zm-41.44,-1.103l1.436,-3.259c0,0 -8.573,-26.467 -10.168,-34.517c-0.912,8.354 8.732,37.776 8.732,37.776z" fill="#e1e0e1" stroke-width="none"/>
     <path id="SvgjsPath5485" d="m124.787,195.605c7.065,-20.834 2.756,-22.551 6.305,-29.469c0.134,-0.261 1.396,1.046 1.533,1.64c1.306,5.658 53.349,17.338 54.994,18.598c1.456,1.058 5.65,3.137 5.65,3.137c4.937,9.07 7.762,10.698 9.15,34.984c0.13,3.083 -0.061,11.801 -0.061,14.141l-85.559,-0.676c0.205,-7.791 1.2,-21.81 7.988,-42.355zm-49.574,0c-7.065,-20.834 -2.756,-22.551 -6.305,-29.469c-0.134,-0.261 -1.396,1.046 -1.533,1.64c-1.306,5.658 -53.349,17.338 -54.994,18.598c-1.456,1.058 -5.65,3.137 -5.65,3.137c-4.937,9.07 -7.762,10.698 -9.15,34.984c-0.13,3.083 0.061,11.801 0.061,14.141l85.559,-0.676c-0.205,-7.791 -1.2,-21.81 -7.988,-42.355z" fill="#0052a4" stroke-width="none"/>
     <path id="SvgjsPath5486" d="m130.307,190c-4.552,16.387 -10.771,31.116 -13.506,47.96c-0.89,-0.007 1.491,-22.695 7.986,-42.354c7.065,-20.834 2.756,-22.551 6.305,-29.469c0.077,-0.15 -0.619,1.976 -0.223,2.432c-0.146,7.727 1.756,13.703 -0.562,21.431zm-60.614,0c4.552,16.387 10.771,31.116 13.506,47.96c0.89,-0.007 -1.491,-22.695 -7.986,-42.354c-7.065,-20.834 -2.756,-22.551 -6.305,-29.469c-0.077,-0.15 0.619,1.976 0.223,2.432c0.146,7.727 -1.756,13.703 0.562,21.431z" fill="#004a95" stroke-width="none"/>
     <path id="SvgjsPath5487" d="m152.436,186.031c0,0 -2.284,2.561 -8.636,6.923c5.313,-5.885 7.761,-8.249 7.761,-8.249l0.875,1.326zm2.175,11.875l-1.528,-1.367c-4.538,13.781 -7.571,20.587 -12.828,36.618c7.544,-14.326 9.344,-19.412 14.356,-35.251zm-106.172,-13.201c0,0 2.447,2.364 7.761,8.249c-6.352,-4.362 -8.636,-6.923 -8.636,-6.923l0.875,-1.326zm11.306,48.452c-5.257,-16.031 -8.29,-22.837 -12.828,-36.618l-1.528,1.367c5.012,15.839 6.812,20.925 14.356,35.251z" fill="#004385" stroke-width="none"/>
     <path id="SvgjsPath5488" d="m179.409,219.335c0,-11.596 3.11,-18.351 9.615,-28.142c0.608,0.372 0.931,0.543 1.345,0.875c-6.917,8.583 -8.291,16.591 -10.96,27.267zm-38.097,11.368c6.113,-16.703 8.06,-23.228 12.107,-34.388c-1.15,-0.351 -8.671,-2.985 -9.819,-3.346c0.41,1 3.113,1.822 7.822,4.709c0,0.001 -5.089,15.404 -10.11,33.025zm8.221,-46.126c0,0 -3.352,4.14 -6.664,8.328c3.388,-2.67 5.748,-5.644 8.691,-8.2c-3.994,-3.368 -10.511,-8.524 -14.721,-12.089c3.324,3.572 12.694,11.961 12.694,11.961zm52.54,54.057l0.286,0.002c0,-2.34 0.19,-11.058 0.061,-14.141c-1.389,-24.286 -4.214,-25.914 -9.15,-34.984c0,0 -4.194,-2.079 -5.65,-3.137c-1.334,-1.021 -38.794,-9.922 -52.49,-15.88c16.011,10.971 46.282,15.027 55.24,21.574c4.332,3.167 10.165,30.269 11.703,46.566zm-192.46,-46.597c0.542,-0.383 0.619,-0.366 1.168,-0.729c6.505,9.791 9.809,16.431 9.809,28.026c-2.668,-10.675 -4.51,-19.016 -10.977,-27.297zm38.965,5.642c4.709,-2.887 7.412,-3.709 7.822,-4.709c-1.148,0.36 -8.669,2.995 -9.819,3.346c4.048,11.16 5.994,17.685 12.107,34.388c-5.021,-17.622 -10.11,-33.025 -10.11,-33.025zm14.582,-25.063c-4.21,3.564 -10.727,8.721 -14.721,12.089c2.943,2.557 5.304,5.53 8.691,8.2c-3.313,-4.188 -6.664,-8.328 -6.664,-8.328s9.371,-8.389 12.694,-11.961zm-53.529,19.452c8.958,-6.547 39.229,-10.604 55.24,-21.574c-13.696,5.958 -51.156,14.858 -52.49,15.88c-1.456,1.058 -5.65,3.137 -5.65,3.137c-4.937,9.07 -7.762,10.698 -9.15,34.984c-0.13,3.083 0.061,11.801 0.061,14.141l0.286,-0.002c1.537,-16.297 7.37,-43.399 11.703,-46.566z" fill="#1263b3" stroke-width="none"/>
     <path id="SvgjsPath5489" d="m132.246,166.374c-0.049,-0.293 -0.443,-0.634 -0.738,-0.657c-0.296,-0.023 -0.432,0.458 -0.567,0.722c-3.549,6.918 0.414,8.333 -6.651,29.167c-6.788,20.545 -7.584,34.862 -7.787,42.653l85.857,0.377c0,-2.34 0.489,-11.058 0.359,-14.141c-1.389,-24.286 -4.313,-26.113 -9.25,-35.184c0,0 -4.394,-2.179 -5.85,-3.236c-4.889,-3.742 -0.59,0.023 -22.03,-6c-17.576,-5.135 -18.525,-6.577 -24.899,-8.35c-1.288,-0.369 -4.057,-0.822 -6.95,-2.851c-0.265,-0.185 -1.399,-1.93 -1.494,-2.5zm-15.272,70.936c3.729,-23.564 6.085,-29.73 11.296,-47.274c3.522,-11.104 1.576,-17.408 3.254,-22.54c0.088,-0.268 0.467,-0.282 0.571,-0.017c2.434,6.214 9.238,7.656 18.834,17.047c-5.813,5.813 -7.309,7.38 -8.06,8.38c0.864,0.438 5.582,2.229 9.9,3.9c-0.245,0.767 -13.415,38.02 -13.57,38.52c10,-21.578 11.292,-28.211 14.22,-39.01c-0.812,-0.612 -7.892,-3.212 -9.09,-3.64c4.274,-4.424 5.51,-5.396 7.53,-7.971c1.622,0 -15.874,-13.318 -16.73,-14.211c0.462,0.364 2.752,1.391 3.01,1.491c14.682,5.166 3.065,2.829 35.2,12.001c3.072,0.781 7.355,1.567 10.53,1.879c0.218,0.02 5.395,2.727 8.35,3.97c-7.189,7.475 -11.797,17.133 -12.81,29.5c3.219,-12.666 4.951,-19.29 13.14,-28.819c7.62,15.422 6.755,13.195 9.23,47.71c-20.612,-0.813 -52.22,-0.999 -84.805,-0.916zm-50.713,-68.435c-2.894,2.028 -5.662,2.481 -6.95,2.851c-6.374,1.772 -7.323,3.215 -24.899,8.35c-21.44,6.023 -17.142,2.258 -22.03,6c-1.456,1.058 -5.85,3.236 -5.85,3.236c-4.937,9.07 -7.861,10.897 -9.25,35.184c-0.13,3.083 0.359,11.801 0.359,14.141l85.857,-0.377c-0.203,-7.791 -0.999,-22.108 -7.787,-42.653c-7.065,-20.834 -3.103,-22.249 -6.651,-29.167c-0.136,-0.264 -0.271,-0.745 -0.567,-0.722c-0.295,0.023 -0.689,0.364 -0.738,0.657c-0.096,0.569 -1.23,2.314 -1.494,2.5zm-68.04,69.351c2.476,-34.515 1.61,-32.288 9.23,-47.71c8.188,9.529 9.921,16.153 13.14,28.819c-1.013,-12.367 -5.62,-22.025 -12.81,-29.5c2.955,-1.243 8.132,-3.95 8.35,-3.97c3.175,-0.312 7.458,-1.098 10.53,-1.879c32.135,-9.172 20.519,-6.835 35.2,-12.001c0.258,-0.101 2.548,-1.127 3.01,-1.491c-0.856,0.893 -18.353,14.211 -16.73,14.211c2.021,2.575 3.256,3.547 7.53,7.971c-1.198,0.428 -8.278,3.027 -9.09,3.64c2.928,10.799 4.22,17.432 14.22,39.01c-0.155,-0.5 -13.325,-37.753 -13.57,-38.52c4.318,-1.672 9.036,-3.463 9.9,-3.9c-0.751,-1 -2.247,-2.567 -8.06,-8.38c9.596,-9.391 16.4,-10.833 18.834,-17.047c0.104,-0.266 0.483,-0.251 0.571,0.017c1.678,5.132 -0.269,11.436 3.254,22.54c5.211,17.544 7.567,23.71 11.296,47.274c-32.585,-0.083 -64.193,0.103 -84.805,0.916z" fill="#003b76" stroke-width="none"/>
    </g>
    <g id="svga-group-head">
     <g id="svga-group-ears-left" transform="matrix(1.00000011,0,0,1.00000011,-0.000004893166064334764,-0.000010669769210380764) ">
      <path id="SvgjsPath3327" d="m47.001,83.231c-1.376,-2.453 -5.638,-8.48 -9.98,-7.003c-2.749,0.935 -3.293,3.993 -3.735,6.693c-0.588,3.591 0.471,10.694 1.389,13.26c0.881,2.467 3.533,7.23 5.264,9.045c2.13,2.225 4.775,9.324 5.194,10.061c0.66,1.162 1.536,2.911 4.122,2.692c2.853,-0.244 4.584,-1.85 5.856,-2.121c3.142,-0.666 -4.529,-26.242 -8.11,-32.627z" fill="#eb9c6e" stroke="#bd5a20" stroke-width="1.5"/>
      <path id="SvgjsPath3328" d="m44.197,98.104c-0.132,-0.581 0.007,-1.56 0.142,-2.504c0.124,-0.861 0.24,-1.675 0.169,-2.251c-0.267,-2.154 -1.773,-6.249 -2.757,-8.467c-1.132,-2.554 -2.963,-5.77 -5.262,-6.599c-0.95,-0.343 -1.575,0.067 -1.938,0.484c-0.266,0.305 -0.325,0.665 -0.238,0.707c0.086,0.042 0.285,-0.254 0.572,-0.535c0.235,-0.229 0.579,-0.426 1.051,-0.385c-0.19,1.073 -1.167,6.883 -0.744,10.845c0.333,3.115 1.593,5.442 1.79,5.791c0.029,0.367 0.077,0.726 0.148,1.075c0.929,4.547 4.971,9.717 6.378,11.409c0.259,0.313 0.531,0.497 0.598,0.423c0.066,-0.076 -0.094,-0.387 -0.353,-0.7c-1.388,-1.679 -5.391,-6.831 -6.289,-11.218c-0.952,-4.656 2.318,-11.556 3.048,-13.017c0.371,0.685 0.687,1.344 0.93,1.893c0.19,0.431 0.402,0.936 0.619,1.479c-0.429,0.762 -3.434,6.32 -2.338,10.767c0.406,1.641 2.235,3.755 3.447,4.333c0.667,0.32 0.919,0.797 1.209,1.349c0.336,0.64 0.718,1.365 1.828,1.892c0.225,0.108 0.429,0.151 0.61,0.151c0.313,0 0.551,-0.135 0.725,-0.293c0.018,0.28 0.017,0.64 0.009,0.97c-0.012,0.431 0.042,0.783 0.137,0.791c0.094,0.008 0.196,-0.332 0.207,-0.76c0.016,-0.526 0.013,-1.177 -0.072,-1.488c-0.248,-0.917 -1.008,-1.953 -1.813,-3.048c-0.789,-1.082 -1.607,-2.195 -1.813,-3.094zm-7.247,-4.031c-2.177,-7.139 0.656,-13.3 1.144,-14.28c0.85,0.822 1.6,1.919 2.21,2.995c-0.444,0.858 -3.263,6.483 -3.354,11.285zm9.391,10.442c-1.004,-0.475 -1.339,-1.115 -1.666,-1.733c-0.293,-0.559 -0.598,-1.136 -1.369,-1.505c-0.168,-0.081 -0.352,-0.203 -0.542,-0.343c-2.486,-6.263 0.272,-9.001 0.963,-9.562c0.211,0.766 0.369,1.468 0.439,2.031c0.063,0.517 -0.052,1.339 -0.167,2.134c-0.142,0.985 -0.286,2.004 -0.137,2.664c0.226,0.982 1.069,2.131 1.884,3.242c0.723,0.986 1.466,2.003 1.721,2.832c-0.108,0.164 -0.45,0.561 -1.126,0.24z" fill="#bd5a20" stroke-width="none"/>
     </g>
     <g id="svga-group-ears-right" transform="matrix(1.00000011,0,0,1.00000011,-0.000017077961587119717,-0.000010669769210380764) ">
      <path id="SvgjsPath3329" d="m152.736,83.231c1.377,-2.453 5.639,-8.48 9.98,-7.003c2.75,0.935 3.293,3.993 3.736,6.693c0.588,3.591 -0.471,10.694 -1.389,13.26c-0.881,2.467 -3.533,7.23 -5.266,9.045c-2.129,2.225 -4.775,9.324 -5.193,10.061c-0.658,1.162 -1.535,2.911 -4.121,2.692c-2.854,-0.244 -4.584,-1.85 -5.857,-2.121c-3.142,-0.666 4.53,-26.242 8.11,-32.627z" fill="#eb9c6e" stroke="#bd5a20" stroke-width="1.5"/>
      <path id="SvgjsPath3330" d="m153.727,101.196c-0.805,1.096 -1.564,2.131 -1.813,3.048c-0.086,0.311 -0.088,0.962 -0.072,1.488c0.012,0.428 0.113,0.768 0.207,0.76s0.148,-0.36 0.137,-0.791c-0.008,-0.331 -0.008,-0.69 0.01,-0.97c0.174,0.158 0.412,0.293 0.725,0.293c0.182,0 0.385,-0.043 0.609,-0.151c1.109,-0.526 1.492,-1.252 1.828,-1.892c0.289,-0.552 0.543,-1.028 1.209,-1.349c1.213,-0.578 3.041,-2.692 3.447,-4.333c1.096,-4.447 -1.908,-10.005 -2.338,-10.767c0.217,-0.544 0.43,-1.049 0.619,-1.479c0.244,-0.549 0.559,-1.208 0.93,-1.893c0.73,1.46 4,8.361 3.049,13.017c-0.896,4.387 -4.9,9.539 -6.289,11.218c-0.258,0.313 -0.418,0.624 -0.352,0.7c0.066,0.074 0.338,-0.109 0.598,-0.423c1.406,-1.692 5.449,-6.862 6.379,-11.409c0.07,-0.35 0.117,-0.708 0.146,-1.075c0.197,-0.349 1.459,-2.676 1.791,-5.791c0.422,-3.961 -0.555,-9.772 -0.744,-10.845c0.473,-0.042 0.814,0.156 1.051,0.385c0.287,0.281 0.486,0.577 0.572,0.535c0.086,-0.042 0.027,-0.402 -0.238,-0.707c-0.363,-0.417 -0.988,-0.827 -1.938,-0.484c-2.299,0.83 -4.131,4.045 -5.262,6.599c-0.984,2.218 -2.49,6.313 -2.758,8.467c-0.072,0.576 0.045,1.39 0.17,2.251c0.135,0.945 0.273,1.924 0.141,2.504c-0.205,0.901 -1.023,2.014 -1.814,3.094zm5.707,-18.409c0.611,-1.075 1.361,-2.173 2.211,-2.995c0.488,0.98 3.32,7.141 1.145,14.28c-0.093,-4.801 -2.911,-10.426 -3.356,-11.285zm-7.164,21.488c0.254,-0.829 0.998,-1.846 1.721,-2.832c0.816,-1.111 1.658,-2.26 1.885,-3.242c0.148,-0.66 0.004,-1.679 -0.137,-2.664c-0.115,-0.795 -0.23,-1.617 -0.166,-2.134c0.068,-0.563 0.227,-1.266 0.438,-2.031c0.691,0.561 3.449,3.299 0.965,9.562c-0.191,0.14 -0.375,0.263 -0.543,0.343c-0.771,0.369 -1.074,0.946 -1.369,1.505c-0.326,0.618 -0.662,1.258 -1.666,1.733c-0.677,0.321 -1.019,-0.076 -1.128,-0.24z" fill="#bd5a20" stroke-width="none"/>
     </g>
     <g id="svga-group-faceshape-wrap">
      <g id="svga-group-faceshape-single">
       <path id="SvgjsPath5497" d="m100.002,0.867c-33.618,0.053 -60.92,27.669 -60.868,61.693c0.009,5.403 0.704,10.643 2.002,15.634l0.001,0c0.012,0.054 8.341,20.48 10.463,33.205c2.38,14.276 10.462,30.232 16.302,35.786c6.052,5.756 20.281,14.682 32.099,14.682c11.267,0 26.046,-8.926 32.099,-14.682c5.84,-5.554 13.922,-21.51 16.302,-35.786c2.122,-12.725 10.452,-33.151 10.463,-33.205l0.002,0c1.298,-4.992 1.994,-10.231 2.002,-15.634c0.054,-34.024 -27.249,-61.64 -60.867,-61.693z" fill="#eb9c6e" stroke-width="none"/>
       <path id="SvgjsPath5498" d="m136.901,13.53c12.866,11.318 21.063,28.416 21.036,47.539c-0.009,5.403 -0.671,10.642 -1.906,15.634l-0.001,0c-0.011,0.054 -7.939,20.48 -9.959,33.205c-2.267,14.277 -9.959,30.233 -15.517,35.786c-5.761,5.757 -19.828,14.683 -30.552,14.683c-11.249,0 -24.792,-8.926 -30.552,-14.683c-5.558,-5.553 -13.25,-21.509 -15.516,-35.786c-2.02,-12.724 -9.948,-33.15 -9.959,-33.205l-0.001,0c-1.236,-4.992 -1.898,-10.231 -1.906,-15.634c-0.028,-19.122 8.168,-36.218 21.033,-47.537c-14.582,11.277 -23.997,29.042 -23.967,49.028c0.009,5.403 0.704,10.643 2.002,15.634l0.001,0c0.012,0.054 8.341,20.48 10.463,33.205c2.38,14.276 10.462,30.232 16.302,35.786c6.052,5.756 20.281,14.682 32.099,14.682c11.267,0 26.046,-8.926 32.099,-14.682c5.84,-5.554 13.922,-21.51 16.302,-35.786c2.122,-12.725 10.452,-33.151 10.463,-33.205l0.002,0c1.298,-4.992 1.994,-10.231 2.002,-15.634c0.032,-19.987 -9.384,-37.754 -23.968,-49.03z" fill="#e3905f" stroke-width="none"/>
       <path id="SvgjsPath5499" d="m100.002,0.867c-33.618,0.053 -60.92,27.669 -60.868,61.693c0.009,5.403 0.704,10.643 2.002,15.634l0.001,0c0.012,0.054 8.341,20.48 10.463,33.205c2.38,14.276 10.462,30.232 16.302,35.786c6.052,5.756 20.281,14.682 32.099,14.682c11.267,0 26.046,-8.926 32.099,-14.682c5.84,-5.554 13.922,-21.51 16.302,-35.786c2.122,-12.725 10.452,-33.151 10.463,-33.205l0.002,0c1.298,-4.992 1.994,-10.231 2.002,-15.634c0.054,-34.024 -27.249,-61.64 -60.867,-61.693z" fill="none" stroke="#bd5a20" stroke-width="1.5"/>
      </g>
     </g>
     <g id="svga-group-mouth-single" transform="matrix(1.2500009400000005,0,0,1.2500009400000005,-25.12509447000005,-34.15652720125283) ">
      <path id="SvgjsPath5490" d="m100.2,142.947c-2.832,0.144 -3.644,-2.753 -3.644,-2.753s3.931,0.565 6.991,-0.353c0.001,0.001 -0.855,2.981 -3.347,3.106z" fill="url(#SvgjsLinearGradient5491)"/>
      <path id="SvgjsPath5494" d="m100.488,140.76c-1.984,0.1 -3.765,-0.077 -3.877,-0.089c-0.138,-0.014 -0.238,-0.136 -0.224,-0.272c0.015,-0.138 0.143,-0.233 0.274,-0.224c0.041,0.003 4.096,0.405 6.738,-0.337c0.131,-0.032 0.271,0.041 0.309,0.174s-0.04,0.27 -0.173,0.308c-0.934,0.262 -2.018,0.388 -3.047,0.44z" fill="#bd5a20" stroke-width="none"/>
      <path id="SvgjsPath5495" d="m82.5,130.299c0,0 12.532,1.486 16.718,1.499c4.553,0.012 19.282,-1.499 19.282,-1.499c-4.258,3.534 -8.943,6.932 -19.555,6.999c-9.492,0.061 -11.924,-3.386 -16.445,-6.999z" fill="#ffffff" stroke-width="none"/>
      <path id="SvgjsPath5496" d="m82.5,130.299c0,0 12.532,1.486 16.718,1.499c4.553,0.012 19.282,-1.499 19.282,-1.499c-4.258,3.534 -8.943,6.932 -19.555,6.999c-9.492,0.061 -11.924,-3.386 -16.445,-6.999z" fill="none" stroke="#bd5a20" stroke-width="0.75"/>
     </g>
     <g id="svga-group-eyes-left" transform="matrix(0.89999969,0,0,0.89999969,7.370807036747877,8.410025918411634) ">
      <g id="svga-group-eyesback-left">
       <path id="SvgjsPath5224" d="m59.722,85.795c2.578,4.596 2.19,5.704 10.268,4.467c9.691,0 17.711,-1.976 17.711,-5.558c0,-3.582 -4.925,-7.115 -17.196,-4.923c-6.016,1.074 -10.783,4.219 -10.783,6.014z" fill="url(#SvgjsRadialGradient5225)"/>
      </g>
      <g id="svga-group-eyesiriswrapper-left">
       <g id="svga-group-eyesiriscontrol-left">
        <g id="svga-group-eyesiris-left">
         <path id="SvgjsPath4854" d="m80.25,84.25c0,3.313 -2.687,5.999 -6,5.999s-6,-2.686 -6,-5.999c0,-3.316 2.687,-6.001 6,-6.001s6,2.686 6,6.001z" fill="#360c09" stroke-width="none"/>
         <path id="SvgjsPath4855" d="m70.762,87.055c0.875,-0.072 0.1,-0.306 0.1,-0.306c-0.433,-0.233 -1.248,-0.592 -1.248,-0.921c0,-1.031 1.414,-1.299 -0.034,-1.705c-1.504,-1.38 1.167,-1.352 1.147,-1.398c-0.975,-2.376 0.299,-1.071 0.835,-1.773c1.988,-2.599 0.554,0.267 1.633,0c0.391,-0.096 -0.78,-1.531 0.034,-1.33c0.539,0.132 0.662,0.58 0.662,0.58c0.393,-0.077 1.008,-0.682 1.008,-0.682c0.749,0.226 1.275,1.29 1.043,1.091c0.368,-0.045 0.884,-0.221 1.286,-0.341c0,0 0.07,-0.239 0.139,-0.033c0.917,2.661 3.284,2.47 0.559,3.24c0,0 -0.176,0 0.382,0.442c2.71,2.164 -2.102,1.495 0.451,2.49c0.104,-0.104 -1.53,0.965 -1.53,1.261c0,0.501 -1.042,1.818 -1.946,1.3c-0.504,-0.288 -0.581,0.6 -0.877,0.19c-0.581,-0.803 -1.742,-0.035 -1.313,-0.773c0.634,-0.521 -0.654,0.204 -0.904,0.204c-0.828,0 1.083,-2.783 3.894,-0.715c0.822,0.602 -0.864,-1.433 0.625,-1.433c0.149,0.049 0.104,-0.521 0.104,-0.682c-0.774,-0.151 1.39,-0.003 1.39,-1.262c0.137,0.027 0.509,-0.35 -1.635,0c0,0 -0.068,-0.75 -0.034,-0.886c0.11,-0.438 1.214,-0.298 0.904,-0.75c0,-0.001 -0.799,-1.604 -0.799,-1.604c-2.573,-0.414 -1.102,-0.672 -2.711,-0.341c-0.076,0.378 -3.445,1.984 -3.338,2.729c0.1,0.702 2.115,0.938 0.208,2.182c2.858,5.472 -2.11,-0.125 -0.035,1.226z" fill="#451612" stroke-width="none"/>
         <path id="SvgjsPath4856" d="m74.25,78.999l0.171,4.393l1.837,-3.993l-1.523,4.123l3.227,-2.985l-2.985,3.226l4.124,-1.523l-3.992,1.839l4.392,0.17l-4.392,0.17l3.992,1.839l-4.124,-1.523l2.985,3.226l-3.227,-2.985l1.523,4.123l-1.837,-3.993l-0.171,4.393l-0.171,-4.393l-1.838,3.993l1.522,-4.123l-3.226,2.985l2.985,-3.226l-4.124,1.523l3.992,-1.839l-4.39,-0.17l4.39,-0.17l-3.992,-1.839l4.124,1.523l-2.985,-3.226l3.226,2.985l-1.522,-4.123l1.838,3.993l0.171,-4.393z" fill="#170200" stroke-width="none"/>
         <path id="SvgjsPath4857" d="m75.046,80.317l-0.539,3.315l1.981,-2.711l-1.766,2.857l2.87,-1.748l-2.725,1.964l3.319,-0.515l-3.268,0.771l3.266,0.794l-3.317,-0.538l2.712,1.982l-2.858,-1.765l1.748,2.869l-1.964,-2.725l0.516,3.319l-0.771,-3.27l-0.795,3.264l0.539,-3.315l-1.984,2.711l1.768,-2.857l-2.869,1.748l2.725,-1.964l-3.319,0.516l3.269,-0.771l-3.264,-0.793l3.315,0.537l-2.712,-1.982l2.858,1.765l-1.747,-2.869l1.964,2.725l-0.516,-3.318l0.772,3.27l0.792,-3.266z" fill="#080100" stroke-width="none"/>
         <path id="SvgjsPath4858" d="m76.5,84.25c0,1.243 -1.008,2.25 -2.25,2.25s-2.25,-1.007 -2.25,-2.25s1.008,-2.25 2.25,-2.25s2.25,1.007 2.25,2.25z" fill="#000000" stroke-width="none" opacity="0.9"/>
         <path id="SvgjsPath4859" d="m71.887,88.561c-0.331,0.332 -0.985,0.215 -1.46,-0.261c-0.476,-0.475 -0.593,-1.129 -0.261,-1.461c0.331,-0.331 0.985,-0.214 1.46,0.261c0.476,0.476 0.593,1.129 0.261,1.461z" fill="#ffffff" stroke-width="none" opacity="0.7"/>
         <path id="SvgjsPath4860" d="m79.056,83.068c-0.496,0.496 -1.697,0.1 -2.682,-0.886c-0.986,-0.986 -1.382,-2.187 -0.886,-2.683c0.496,-0.496 1.697,-0.1 2.682,0.886c0.986,0.987 1.382,2.187 0.886,2.683z" fill="#ffffff" stroke-width="none" opacity="0.9"/>
        </g>
       </g>
      </g>
      <g id="svga-group-eyesfront-left">
       <path id="SvgjsPath5249" d="m54.8,84.999c0,13.807 8.507,25 19,25s19,-11.193 19,-25s-8.507,-25 -19,-25s-19,11.193 -19,25zm4.922,0.796c0,-1.795 4.768,-4.939 10.782,-6.014c12.271,-2.192 17.196,1.342 17.196,4.923c0,3.582 -8.02,5.558 -17.711,5.558c-8.077,1.237 -7.689,0.129 -10.267,-4.467z" fill="#eb9c6e" stroke-width="none"/>
       <path id="SvgjsPath5250" d="m58.697,86.046c-0.075,6.904 8.647,12.467 18.038,12.434c9.389,-0.04 16.987,-5.663 16.962,-12.568c-0.023,-6.903 -7.647,-12.467 -17.04,-12.431c-9.392,0.038 -17.858,3.121 -17.96,12.565zm1.025,-0.251c0,-1.795 4.768,-4.939 10.782,-6.014c12.271,-2.192 17.196,1.342 17.196,4.923c0,3.582 -8.02,5.558 -17.711,5.558c-8.077,1.237 -7.689,0.129 -10.267,-4.467z" fill="url(#SvgjsRadialGradient5251)"/>
       <path id="SvgjsPath5255" d="m59.722,85.795c2.578,4.596 2.19,5.704 10.268,4.467c9.691,0 17.711,-1.976 17.711,-5.558c0,-3.582 -4.925,-7.115 -17.196,-4.923c-6.016,1.074 -10.783,4.219 -10.783,6.014z" fill="url(#SvgjsRadialGradient5256)"/>
       <path id="SvgjsPath5259" d="m86.716,88.797c0,0 -1.383,0.778 -2.354,1.036c-1.209,0.318 -4.997,0.895 -11.562,1.795c7.49,-0.531 10.48,-0.82 11.762,-1.189c1.016,-0.292 2.154,-1.642 2.154,-1.642z" fill="#bd5a20" stroke-width="none"/>
       <path id="SvgjsPath5260" d="m87.757,83.463c0.062,0.073 0.057,0.18 -0.011,0.247c-0.068,0.066 -0.175,0.069 -0.247,0.007l-3.871,-3.383c-11.411,-1.304 -19.93,0.687 -23.25,5.247l0.536,2.4l-3.114,-2.69c3.172,-4.526 6.306,-7.915 25.828,-6.735c2.305,2.252 3.509,3.379 4.129,4.907zm-1.125,3.979c0.082,-0.079 0.102,-0.205 0.048,-0.306c-0.052,-0.103 -0.166,-0.156 -0.279,-0.135c-3.954,2.317 -11.021,2.523 -22.642,3.426l-2.25,-1.384l1.653,2.046c12.582,-0.588 21.844,-1.333 23.47,-3.647z" fill="#582311" stroke-width="none"/>
      </g>
     </g>
     <g id="svga-group-eyes-right" transform="matrix(0.89999969,0,0,0.89999969,12.590646864746589,8.410025918411634) ">
      <g id="svga-group-eyesback-right">
       <path id="SvgjsPath5232" d="m139.879,85.795c-2.578,4.596 -2.19,5.704 -10.268,4.467c-9.691,0 -17.711,-1.976 -17.711,-5.558c0,-3.582 4.925,-7.115 17.196,-4.923c6.015,1.074 10.783,4.219 10.783,6.014z" fill="url(#SvgjsRadialGradient5233)"/>
      </g>
      <g id="svga-group-eyesiriswrapper-right">
       <g id="svga-group-eyesiriscontrol-right">
        <g id="svga-group-eyesiris-right">
         <path id="SvgjsPath4861" d="m131.75,84.249c0,3.316 -2.684,6 -6,6s-6,-2.684 -6,-6s2.684,-6 6,-6s6,2.684 6,6z" fill="#360c09" stroke-width="none"/>
         <path id="SvgjsPath4862" d="m122.258,87.056c0.879,-0.076 0.105,-0.305 0.105,-0.305c-0.434,-0.234 -1.254,-0.592 -1.254,-0.926c0,-1.031 1.418,-1.295 -0.023,-1.705c-1.512,-1.377 1.16,-1.348 1.137,-1.395c-0.973,-2.379 0.305,-1.072 0.844,-1.775c1.98,-2.596 0.551,0.27 1.629,0c0.387,-0.094 -0.785,-1.529 0.035,-1.33c0.539,0.135 0.656,0.58 0.656,0.58c0.398,-0.076 1.008,-0.68 1.008,-0.68c0.75,0.223 1.277,1.289 1.043,1.09c0.375,-0.047 0.891,-0.223 1.289,-0.34c0,0 0.07,-0.24 0.141,-0.035c0.914,2.66 3.281,2.473 0.563,3.24c0,0 -0.176,0 0.375,0.439c2.707,2.168 -2.098,1.494 0.457,2.49c0.105,-0.1 -1.535,0.967 -1.535,1.266c0,0.498 -1.043,1.816 -1.945,1.295c-0.504,-0.287 -0.586,0.604 -0.879,0.193c-0.574,-0.803 -1.746,-0.035 -1.313,-0.773c0.633,-0.521 -0.656,0.205 -0.902,0.205c-0.832,0 1.078,-2.783 3.891,-0.715c0.82,0.598 -0.867,-1.436 0.633,-1.436c0.141,0.047 0.105,-0.521 0.105,-0.68c-0.785,-0.152 1.383,-0.006 1.383,-1.266c0.141,0.029 0.516,-0.346 -1.629,0c0,0 -0.07,-0.75 -0.035,-0.885c0.105,-0.439 1.207,-0.299 0.902,-0.75l-0.797,-1.605c-2.578,-0.41 -1.102,-0.668 -2.719,-0.34c-0.07,0.381 -3.445,1.986 -3.34,2.73c0.105,0.703 2.121,0.938 0.211,2.18c2.858,5.481 -2.11,-0.121 -0.036,1.233z" fill="#451612" stroke-width="none"/>
         <path id="SvgjsPath4863" d="m125.75,78.999l0.176,4.395l1.828,-3.996l-1.523,4.125l3.234,-2.988l-2.988,3.229l4.125,-1.523l-3.996,1.84l4.395,0.17l-4.395,0.17l3.996,1.84l-4.125,-1.523l2.988,3.229l-3.234,-2.988l1.523,4.125l-1.828,-3.996l-0.176,4.391l-0.176,-4.395l-1.84,3.996l1.523,-4.125l-3.223,2.988l2.988,-3.229l-4.125,1.523l3.996,-1.84l-4.395,-0.17l4.395,-0.17l-3.996,-1.84l4.125,1.523l-2.988,-3.229l3.223,2.988l-1.523,-4.125l1.84,3.996l0.176,-4.391z" fill="#170200" stroke-width="none"/>
         <path id="SvgjsPath4864" d="m126.547,80.317l-0.539,3.316l1.98,-2.713l-1.77,2.859l2.871,-1.752l-2.719,1.969l3.316,-0.516l-3.27,0.768l3.27,0.797l-3.316,-0.539l2.707,1.98l-2.859,-1.764l1.746,2.871l-1.957,-2.725l0.516,3.316l-0.773,-3.267l-0.797,3.264l0.539,-3.316l-1.98,2.713l1.77,-2.859l-2.871,1.752l2.719,-1.969l-3.316,0.516l3.27,-0.768l-3.27,-0.797l3.316,0.539l-2.707,-1.98l2.859,1.764l-1.746,-2.871l1.957,2.725l-0.516,-3.316l0.773,3.27l0.797,-3.267z" fill="#080100" stroke-width="none"/>
         <path id="SvgjsPath4865" d="m128,84.249c0,1.242 -1.008,2.25 -2.25,2.25s-2.25,-1.008 -2.25,-2.25s1.008,-2.25 2.25,-2.25s2.25,1.008 2.25,2.25z" fill="#000000" stroke-width="none" opacity="0.9"/>
         <path id="SvgjsPath4866" d="m123.383,88.562c-0.328,0.328 -0.984,0.217 -1.453,-0.264c-0.48,-0.475 -0.598,-1.125 -0.258,-1.459c0.328,-0.328 0.984,-0.211 1.453,0.264c0.48,0.474 0.598,1.125 0.258,1.459z" fill="#ffffff" stroke-width="none" opacity="0.7"/>
         <path id="SvgjsPath4867" d="m130.555,83.065c-0.492,0.498 -1.699,0.105 -2.684,-0.885c-0.984,-0.984 -1.383,-2.186 -0.879,-2.678c0.492,-0.498 1.688,-0.105 2.672,0.885c0.996,0.985 1.383,2.186 0.891,2.678z" fill="#ffffff" stroke-width="none" opacity="0.9"/>
        </g>
       </g>
      </g>
      <g id="svga-group-eyesfront-right">
       <path id="SvgjsPath5270" d="m125.801,59.999c-10.493,0 -19,11.193 -19,25s8.507,25 19,25s19,-11.193 19,-25s-8.507,-25 -19,-25zm3.81,30.263c-9.691,0 -17.711,-1.976 -17.711,-5.558c0,-3.582 4.925,-7.115 17.196,-4.923c6.015,1.074 10.782,4.218 10.782,6.014c-2.577,4.596 -2.19,5.704 -10.267,4.467z" fill="#eb9c6e" stroke-width="none"/>
       <path id="SvgjsPath5271" d="m122.943,73.48c-9.393,-0.036 -17.017,5.528 -17.04,12.431c-0.025,6.906 7.573,12.529 16.962,12.568c9.391,0.034 18.113,-5.529 18.038,-12.434c-0.101,-9.443 -8.567,-12.526 -17.96,-12.565zm6.668,16.782c-9.691,0 -17.711,-1.976 -17.711,-5.558c0,-3.582 4.925,-7.115 17.196,-4.923c6.015,1.074 10.782,4.218 10.782,6.014c-2.577,4.596 -2.19,5.704 -10.267,4.467z" fill="url(#SvgjsRadialGradient5272)"/>
       <path id="SvgjsPath5276" d="m139.879,85.795c-2.578,4.596 -2.19,5.704 -10.268,4.467c-9.691,0 -17.711,-1.976 -17.711,-5.558c0,-3.582 4.925,-7.115 17.196,-4.923c6.015,1.074 10.783,4.219 10.783,6.014z" fill="url(#SvgjsRadialGradient5277)"/>
       <path id="SvgjsPath5280" d="m112.885,88.797c0,0 1.383,0.778 2.354,1.036c1.209,0.318 4.997,0.895 11.562,1.795c-7.49,-0.531 -10.48,-0.82 -11.762,-1.189c-1.017,-0.292 -2.154,-1.642 -2.154,-1.642z" fill="#bd5a20" stroke-width="none"/>
       <path id="SvgjsPath5281" d="m115.973,78.555c19.522,-1.179 22.656,2.209 25.828,6.735l-3.114,2.69l0.536,-2.4c-3.32,-4.56 -11.839,-6.551 -23.25,-5.247l-3.871,3.383c-0.072,0.063 -0.179,0.06 -0.247,-0.007c-0.067,-0.066 -0.072,-0.174 -0.011,-0.247c0.62,-1.527 1.824,-2.654 4.129,-4.907zm20.465,12.535l1.653,-2.046l-2.25,1.384c-11.621,-0.903 -18.688,-1.109 -22.642,-3.426c-0.113,-0.021 -0.228,0.032 -0.279,0.135c-0.054,0.102 -0.034,0.227 0.048,0.306c1.627,2.313 10.888,3.058 23.47,3.647z" fill="#582311" stroke-width="none"/>
      </g>
     </g>
     <g id="svga-group-facehighlight-single">
      <path id="SvgjsPath2885" d="m141,113.974c0.035,22.622 -18.292,40.994 -40.938,41.025c-22.642,0.037 -41.028,-18.273 -41.063,-40.9c-0.035,-22.62 18.292,-41.064 40.937,-41.1c22.643,-0.035 41.031,18.35 41.064,40.975z" fill="url(#SvgjsRadialGradient2886)"/>
      <path id="SvgjsPath2889" d="m137.5,53.999c0,20.711 -16.789,37.5 -37.499,37.5c-20.711,0 -37.501,-16.789 -37.501,-37.5s16.79,-37.5 37.501,-37.5c20.71,0 37.499,16.789 37.499,37.5z" fill="url(#SvgjsRadialGradient2890)"/>
     </g>
     <g id="svga-group-eyebrows-left" transform="rotate(-10.714285850524902 73.19988250732428,70.17048645019527) matrix(0.94999968,0,0,0.94999968,3.6600172585925246,3.5085467770654333) ">
      <path id="SvgjsPath5514" d="m52.488,73.87c7.475,-9.383 20.338,-7.822 30.878,-6.314c2.681,0.384 5.441,0.672 8.07,1.336c1.884,0.475 3.365,2.622 1.851,4.356c-0.708,0.825 -2.253,0.672 -3.207,0.652c-12.621,-0.255 -26.887,-7.513 -37.592,-0.03z" fill="#472513" stroke-width="none"/>
     </g>
     <g id="svga-group-eyebrows-right" transform="rotate(10.714285850524902 126.83650207519518,70.32752227783206) matrix(0.94999968,0,0,0.94999968,6.341865600704345,3.51639861869873) ">
      <path id="SvgjsPath5515" d="m147.577,73.49c-2.164,-1.448 -4.454,-2.47 -7.043,-2.889c-9.497,-1.54 -27.586,4.79 -32.341,3.45c-2.912,-0.822 -2.323,-3.739 -1.035,-4.458c0.775,-0.433 0.99,-0.422 7.909,-1.612c11.757,-2.02 24.921,-3.626 32.51,5.509z" fill="#472513" stroke-width="none"/>
     </g>
     <g id="svga-group-nose-single">
      <path id="SvgjsPath3212" d="m96.831,88.524c0,0 -1.399,11.117 -2.026,13.281c-1.379,4.752 -6.168,11.417 -5.239,14.429c1.859,6.022 7.537,4.493 10.524,4.471c2.763,-0.022 8.072,1.552 9.162,-2.37c0.352,-1.266 -0.441,-4.466 -0.441,-4.466s-2.644,3.112 -8.875,2.767c-1.778,-0.099 -4.671,-2.096 -4.704,-4.912c-0.043,-3.817 1.802,-7.035 2.205,-10.824c0.304,-2.878 -0.606,-12.376 -0.606,-12.376z" fill="#dc8451" stroke-width="none"/>
      <path id="SvgjsPath3213" d="m105.194,118.969c1.075,0 1.366,0.326 1.366,0.729c0,0.404 -0.335,1.026 -1.366,0.73c-1.134,-0.323 -3.113,-0.175 -3.113,-0.175s2.036,-1.284 3.113,-1.284zm-10.272,0c-1.077,0.001 -1.366,0.328 -1.366,0.733c-0.001,0.403 0.323,0.983 1.366,0.729c1.15,-0.282 3.112,-0.175 3.112,-0.175s-2.035,-1.283 -3.112,-1.287zm13.888,-5.1c0,0 1.489,1.933 1.18,3.975c-0.301,1.983 -3.31,2.861 -3.31,2.861s2.089,-1.516 2.342,-3.356c0.118,-0.863 -0.212,-3.48 -0.212,-3.48zm-18.383,-1.986c0,0 -1.086,2.704 -0.772,4.352c0.571,2.976 3.704,4.164 3.704,4.164s-1.955,-2.039 -2.65,-3.842c-0.761,-1.97 -0.282,-4.674 -0.282,-4.674z" fill="#bd5a20" stroke-width="none"/>
      <path id="SvgjsPath3214" d="m105.141,115.311c1.043,-0.889 1.148,-1.396 0.932,-1.729c-0.215,-0.334 -0.841,-0.545 -1.714,0.528c-0.963,1.18 -3.056,2.054 -3.056,2.054s2.795,0.034 3.838,-0.853z" fill="#fab68e" stroke-width="none"/>
     </g>
     <g id="svga-group-beardwrap">
      <g id="svga-group-beard-single" transform="matrix(0.84999948,0,0,0.84999948,15.00005257220657,19.486328920170592) ">
       <path id="SvgjsPath5504" d="m100,18.13l0,0l0,0l0,0z" fill="#2a232b" stroke-width="none"/>
      </g>
     </g>
     <g id="svga-group-mustache-single">
      <path id="SvgjsPath4928" d="m100,18.13l0,0l0,0l0,0z" fill="#2a232b" stroke-width="none"/>
     </g>
     <g id="svga-group-hair-front">
      <path id="SvgjsPath5508" d="m152.983,98.604c-4.563,-12.435 0.717,-31.506 -8.205,-45.615c-4.064,-6.762 -7.597,-11.409 -6.95,-19.276l-0.368,-0.124c-0.862,1.352 -1.994,2.82 -2.745,3.76c0.427,-1.091 1.123,-2.762 1.753,-4.023l-0.332,-0.218c-2.585,3.073 -4.805,4.649 -7.859,5.5c3.3,-2.32 6.949,-6.357 8.546,-8.595l-0.271,-0.284c-11.319,7.283 -24.164,7.382 -35.496,7.471c-10.227,0.076 -16.579,-0.155 -23.953,-4.441c-5.321,1.764 -9.511,1.539 -14.116,-1.635c-14.414,27.947 -8.01,13.957 -16.627,65.764c-5.004,-6.67 -6.458,-10.912 -7.642,-17.267c-0.313,-2.027 -0.619,-5.154 -0.429,-7.215l-0.063,-0.065c-4.452,-9.77 -6.553,-15.333 -5.495,-34.712c0.785,-8.04 2.533,-14.076 7.574,-20.398c-0.665,-3.435 -0.729,-6.898 -0.277,-10.21c-2.64,-4.827 -4.457,-9.795 -5.165,-11.57c3.688,2.823 3.993,2.986 7.07,3.957c0.704,-1.937 1.73,-3.861 2.387,-4.865c0.297,2.238 0.533,3.75 1.203,5.925c0.228,0.055 1.313,0.349 1.66,0.442c-0.199,-1.324 -0.381,-1.938 -0.353,-3.125c0.571,1.302 1.053,1.604 2.71,3.626c1.834,0.385 1.394,0.328 1.944,0.328c-2.669,-4.183 -4.47,-7.885 -4.927,-13.515c3.653,2.081 8.764,3.27 14.101,3.27c12.539,0 25.369,-9.412 43.169,-9.412c15.425,0 28.771,8.558 34.683,18.303c-0.006,-2.514 -0.113,-4.594 0.794,-7.178c0,0 0.105,3.705 0.105,6.592l0.396,0.037c0.62,-3.301 1.928,-6.115 4.088,-8.773c-1.918,5.158 -1.188,2.404 -3.334,8.702l0.348,0.187c1.431,-1.839 2.603,-3.139 6.019,-4.862c-2.468,2.473 -4.355,3.89 -5.522,5.639l0.301,0.259c1.456,-1.32 2.971,-1.82 4.512,-0.613c-2.481,-0.902 -3.946,0.679 -5.648,2.675c6.619,1.091 10.21,4.91 14.864,10.015c10.712,12.352 13.533,24.411 7.723,41.506c2.435,5.263 2.06,17.125 -3.375,26.686c-0.002,5.61 -3.84,12.532 -6.798,17.347z" fill="#472513" stroke-width="none"/>
      <path id="SvgjsPath5509" d="m62.299,30.371c0.359,0.334 0.718,0.668 1.074,1.004c-0.129,-0.085 -0.258,-0.164 -0.388,-0.253c-14.414,27.947 -8.01,13.957 -16.627,65.764c-5.004,-6.67 -6.458,-10.912 -7.642,-17.267c-0.313,-2.027 -0.619,-5.154 -0.429,-7.215l-0.063,-0.065c-4.452,-9.77 -6.553,-15.333 -5.495,-34.712c0.785,-8.04 2.533,-14.076 7.574,-20.398c-0.654,-3.378 -0.72,-6.782 -0.293,-10.044c0.597,0.874 1.223,1.725 1.863,2.565c0.431,2.624 0.796,5.183 0.127,7.25c-9.539,29.478 -4,43 2,64c-2.464,-15.931 -7.142,-36.185 5.619,-48c-5.451,13.096 -3.946,19.034 -2.619,28c0.917,-11.918 5.195,-23.004 15.299,-30.629zm93.133,-17.311c-0.376,-0.412 -0.742,-0.812 -1.106,-1.207c-0.382,0.255 -0.774,0.489 -1.159,0.737c14.956,30.661 0.594,27.717 4.017,41.409c3.999,10 -1.184,16.001 -1.184,26.001c0,-15 -0.681,-25.439 -8.96,-37.175c-2.796,-3.963 -3.581,-17.423 -5.465,-24.074c-23.202,14.249 -57.573,17.23 -93.659,-11.568c17,6 51.649,1.35 63.543,-6.316c-13.558,2.461 -41.862,2.608 -54.59,-2.631c30.5,-2.37 30.131,-12.16 56.131,-14c-12.5,-4.667 -39.804,7.254 -52.342,7.254c-5.336,0 -10.447,-1.188 -14.101,-3.27c0.457,5.63 2.258,9.333 4.927,13.515c-0.551,0 -0.11,0.057 -1.944,-0.328c-1.658,-2.022 -2.14,-2.325 -2.71,-3.626c-0.029,1.187 0.154,1.801 0.353,3.125c-0.347,-0.093 -1.433,-0.387 -1.66,-0.442c-0.67,-2.175 -0.906,-3.687 -1.203,-5.925c-0.656,1.004 -1.683,2.928 -2.387,4.865c-3.078,-0.971 -3.382,-1.134 -7.07,-3.957c0.708,1.775 2.525,6.744 5.165,11.57c-0.007,0.055 -0.009,0.111 -0.016,0.166c6.305,9.235 15.169,16.471 23.363,24.192c4.454,2.924 8.558,3.096 13.729,1.382c7.374,4.286 13.727,4.517 23.953,4.441c11.332,-0.088 24.177,-0.188 35.496,-7.471l0.271,0.284c-1.597,2.238 -5.246,6.275 -8.546,8.595c3.055,-0.852 5.274,-2.428 7.859,-5.5l0.332,0.218c-0.63,1.262 -1.326,2.932 -1.753,4.023c0.751,-0.94 1.883,-2.408 2.745,-3.76l0.368,0.124c-0.646,7.868 2.886,12.514 6.95,19.276c8.922,14.109 3.643,33.181 8.205,45.615c2.958,-4.815 6.796,-11.736 6.796,-17.352c5.435,-9.561 5.81,-21.423 3.375,-26.686c5.81,-17.093 2.989,-29.152 -7.723,-41.504zm0.733,25.649c-0.33,-9.524 -6.633,-21.612 -6.633,-21.612c-2.946,-5.204 -5.579,-7.687 -9.996,-8.695c12.426,0.619 17.306,19.179 16.769,28.875c-0.051,0.9 -0.14,1.432 -0.14,1.432zm-28.258,-40.216c3.283,2.663 4.067,3.423 7.296,7.909c-16.653,-29.889 -49.333,-7.27 -59.667,-8c10.505,2.171 34.257,-13.192 52.371,0.091zm8.462,12.992c-19.961,16.548 -50.44,9.538 -75.369,1.725c24.827,11.371 56.435,17.524 75.369,-1.725zm-78.5,18c-6.539,3.425 -9.616,12.05 -9.9,17.75c1.221,-4.919 4.885,-13.944 9.9,-17.75zm-8.25,-4.75c-9.359,5.699 -11.174,18.771 -10.25,29.75c0.984,-10.142 2.812,-23.375 10.25,-29.75zm67.445,-12.395c-1.006,0.215 -7.259,1.072 -10.672,1.195c-2.661,0.155 -13.037,0.328 -22.391,-0.048c9.655,2.069 15.454,2.454 22.496,2.045c8.106,-0.293 15.36,-1.898 21.371,-6.796c-4.235,2.331 -6.04,2.663 -10.804,3.604zm33.545,26.545c0,0 -0.256,-0.441 -0.588,-1.102c-0.911,-1.527 -1.945,-5.681 -5.938,-18.736c2.966,24.195 7.817,19.782 9.991,32.283c0.001,-4.496 -0.313,-6.801 -3.465,-12.445z" fill="#381909" stroke-width="none"/>
      <path id="SvgjsPath5510" d="m157.853,68.131c0.364,-3.246 0.217,-1.758 0.257,-3.61c0.306,-6.244 -3.426,-11.479 -1.154,-18.987c1.854,-5.453 2.925,-6.308 2.113,-15.801c-0.119,-1.37 -0.474,-4.774 -1.102,-5.998c0.856,1.489 1.422,4.245 1.725,5.934c1.687,9.543 0.268,10.992 -1.521,16.267c-2.39,7.97 2.197,11.486 -0.318,22.195zm-16.278,-49.38c1.117,30.37 7.276,23.316 12.717,41.752c-3.694,-21.746 -7.111,-3.717 -12.717,-41.752zm-93.206,15.484c-9.19,11.563 -8.262,19.899 -6,37c-0.204,-17.31 -2.314,-23.88 6,-37zm-6.597,-16.521c-5.274,16.319 -6.429,23.684 -3.897,41.285c-0.469,-17.646 -0.357,-21.541 3.897,-41.285zm20.18,12.927c-9.63,6.919 -14.657,19.576 -14.952,30.359c1.482,-10.305 7.012,-23.303 14.952,-30.359zm66.903,-6.047c-12.051,4.437 -31.667,5.625 -45.988,1.322c-11.161,-3.255 -28.588,-14.193 -37.962,-21.071c8.498,6.765 23.471,16.807 33.926,20.776c10.863,4.059 27.887,5.567 41.081,2.245c9.248,-2.324 14.041,-4.52 21.663,-9.114c-3.393,1.86 -8.391,4.49 -12.72,5.842zm-26.042,-36.188c12.167,-2.285 26.509,5.558 34.057,14.83c-7.897,-11.318 -20.837,-16.949 -28.562,-17.083c-12.679,-0.22 -25.795,10.643 -51.439,11.582c24.113,1.062 35.704,-7.671 45.944,-9.329zm9.556,12.829c-17.289,6.143 -30.64,7.613 -48.807,8.58c18.763,1.155 32.177,-0.665 48.807,-8.58zm18.167,3.503c-10.662,5.027 -15.33,5.851 -37.337,7.191c13.797,0.557 26.686,-0.16 37.337,-7.191zm-35.288,15.285c10.644,1.237 29.289,-0.105 38.621,-9.788c-11.27,9.494 -32.119,9.154 -48.38,8.508c6.224,0.971 5.101,0.809 9.759,1.28zm45.621,-9.288c7.629,2.809 9.489,16.193 12.5,27c-1.347,-9.579 -3.648,-24.922 -12.5,-27z" fill="#563320" stroke-width="none"/>
      <path id="SvgjsPath5511" d="m155.579,12.925c-4.348,-4.769 -8.252,-8.97 -14.63,-10.02c2.094,-2.463 3.566,-3.379 6.25,-1.85c-1.59,-1.871 -3.417,-2.226 -5.63,-0.22c1.271,-1.905 3.468,-3.46 6.3,-6.43c-4.231,1.985 -5.503,3.34 -7.12,5.42c2.285,-6.703 1.3,-3.128 3.72,-9.75c-2.529,2.836 -4.146,5.92 -4.859,9.72c0,-5.903 -0.185,-5.14 -0.07,-7.72c-1.387,3.089 -1.229,5.81 -1.229,7.59c-2.233,-3.682 -5.514,-6.8 -9.051,-9.35c-25.054,-18.289 -50.039,-1.456 -63.58,0.58c-5.489,0.927 -13.714,0.338 -19.35,-3.04c0.398,5.764 2.183,9.592 4.79,13.68c-0.001,0 -1.47,-0.31 -1.47,-0.31c-2.019,-2.434 -2.214,-2.356 -2.96,-4.33c-0.191,1.763 0.101,2.74 0.25,3.74c-0.498,-0.13 -0.957,-0.268 -1.26,-0.34c-0.743,-2.414 -0.958,-4.25 -1.23,-6.29c-0.614,0.785 -1.922,3.18 -2.64,5.15c-2.999,-0.948 -3.214,-1.099 -7.43,-4.33c0.5,1 2.309,6.461 5.44,12.23c-0.47,3.534 -0.328,7.06 0.27,10.12c-5.025,6.312 -6.77,12.346 -7.56,20.44c-1.041,19.059 0.867,24.611 5.53,34.82c0.01,0.01 0.01,0.03 0.02,0.04c-0.177,1.971 0.119,5.102 0.44,7.18c1.179,6.332 2.625,10.693 7.91,17.65c0.02,0.02 0.03,0.05 0.05,0.07c3.395,-20.368 3.045,-20.867 3.77,-25.89c3.572,-25.712 3.417,-21.872 12.81,-40.07c3.813,2.628 8.035,3.552 14.02,1.56c4.342,2.524 8.776,4.45 21.06,4.45c12.171,-0.152 26.176,0.412 38.52,-7.53c-1.87,2.622 -6.118,7.154 -9.46,9.18c3.479,-0.736 5.975,-2.137 9.09,-5.84c-0.957,1.915 -2.083,4.814 -2.17,5.16c0.15,-0.18 2.15,-2.57 3.51,-4.7c-0.653,7.945 2.894,12.597 6.98,19.4c8.956,14.163 3.511,33.521 8.33,45.96c3.09,-4.996 7.04,-12.086 7.04,-17.75c5.21,-9.086 5.956,-21.111 3.39,-26.75c5.217,-15.631 4.163,-27.847 -7.791,-41.63zm-108.79,-15.39c0.488,1.389 0.595,1.359 2.49,3.61c-0.94,-0.195 -1.565,-0.332 -2.13,-0.46c-0.219,-1.056 -0.36,-2.06 -0.36,-3.15zm-2.51,-2.66c0.094,1.532 0.459,3.542 0.99,5.31c-2.865,-0.737 -1.8,-0.504 -2.8,-0.8c0.823,-2.474 1.133,-3.1 1.81,-4.51zm1.72,100.22c-4.216,-7.605 -5.323,-10.191 -6.49,-17.89c-0.114,-0.886 -0.472,-3.446 -0.49,-4.67c-6.07,-13.88 -8.352,-40.236 1.21,-54.74c0,-0.01 0,-0.01 0,-0.01s0.399,-0.624 1.12,-1.52c-0.267,-1.344 -0.531,-4.18 -0.44,-7.28c0.74,1.32 1.58,2.52 2.33,3.67c0,-0.003 0.59,0.781 0.59,0.8c4.551,5.79 8.754,10.604 18.92,17.75c-12.205,19.774 -11.448,13.095 -16.75,63.89zm117.64,-46.889c-0.356,2.358 -1.123,5.583 -1.539,6.99c2.78,7.068 -0.257,20.417 -3.061,26.38c-1.226,7.093 -2.545,8.521 -6.01,15.59c-2.477,-11 2.583,-30.519 -6.76,-45.08c-6.059,-10.044 -8.657,-11.36 -7.23,-23.77c0,0 0.061,-0.675 0.08,-0.85c-12.628,7.721 -26.576,8.594 -44.97,8.2c-5.317,0 -12.5,-0.668 -16.98,-3.44c-9.081,2.583 -12.45,-1.437 -20.01,-7.34c-8.163,-6.937 -13.709,-12.994 -20.55,-27.27c3.843,3.118 11.537,4.689 16.39,5.5c-3.273,-4.363 -5.199,-8.349 -6.07,-14c3.48,2.32 11.82,4.603 19.17,3.79c13.534,-1.271 32.484,-15.167 55.77,-4.63c10.804,4.767 16.286,11.476 17.57,15c0.01,0 0.02,0.01 0.04,0.01c0.06,0.02 0.12,0.03 0.189,0.04c0.017,0.018 0.332,0.09 0.36,0.09c6.976,2.325 7.443,2.759 14.2,10.64c3.798,4.659 12.94,13.96 9.411,34.15z" fill="#190900" stroke-width="none"/>
     </g>
     <g id="svga-group-glasses-single" transform="matrix(0.99999989,0,0,0.99999989,0.000011000180847986485,0.00000957055809180929) ">
      <path id="SvgjsPath5512" d="m100,18.13l0,0l0,0l0,0z" fill="#013467" stroke-width="none"/>
     </g>
    </g>
   </g>
  </g>
 </g>
</svg>