<svg width="168" height="59.99999999999999" xmlns="http://www.w3.org/2000/svg" preserveAspectRatio="xMidYMid meet">
 <metadata>Created by potrace 1.15, written by Peter Selinger 2001-2017</metadata>

 <g>
  <title>background</title>
  <rect fill="none" id="canvas_background" height="62" width="170" y="-1" x="-1"/>
 </g>
 <g>
  <title>Layer 1</title>
  <g id="svg_1" fill="#000000" transform="translate(0,61) scale(0.10000000149011612,-0.10000000149011612) ">
   <path id="svg_2" d="m867.4943,590.92934l-28,-17l0,-162c0,-155 1,-163 19,-163c11,0 23,5 26,10c8,13 25,13 25,0c0,-5 -11,-12 -25,-16c-22,-6 -25,-11 -25,-55c0,-57 12,-62 66,-28c24,15 37,32 45,62c6,23 13,47 15,54c4,15 84,37 94,26c15,-18 48,-120 49,-156c1,-25 -7,-55 -24,-84c-33,-60 -25,-68 10,-9c36,61 37,132 3,203c-36,76 -45,84 -74,71c-33,-15 -48,0 -35,35c6,16 7,57 1,112c-8,80 -18,108 -45,127c-18,13 -69,8 -97,-10z" fill="#ffffff"/>
  </g>
  <metadata>Created by potrace 1.15, written by Peter Selinger 2001-2017</metadata>
  <g stroke="null" id="svg_8">
   <g id="svg_6" fill="#000000" transform="matrix(0.1034481305962954,0,0,-0.10055337064188728,-96.18831168107161,-115.58135889893333) ">
    <path stroke="null" id="svg_7" d="m1107.52629,-1159.64084c-38,-14 -54,-60 -54,-161c0,-86 0,-86 -27,-92c-22,-4 -34,-19 -60,-73c-30,-62 -33,-76 -33,-162c0,-62 4,-96 12,-98c8,-3 9,7 1,39c-17,75 -3,147 45,233c28,51 67,60 85,20c7,-14 12,-32 12,-40c0,-19 46,-86 73,-107c12,-10 32,-18 45,-18c20,0 22,5 22,45c0,39 -3,47 -25,55c-14,5 -25,14 -25,20c0,13 17,13 25,0c3,-5 13,-10 21,-10c12,0 14,28 14,163l0,163l-29,17c-32,19 -62,20 -102,6z" fill="#ffffff"/>
   </g>
  </g>
  <text stroke="#000" transform="matrix(1.2514095306396484,0,0,1,-33.056425005197525,0) " xml:space="preserve" text-anchor="start" font-family="Helvetica, Arial, sans-serif" font-size="18" id="svg_11" y="16.74197" x="111.477514" stroke-width="0" fill="#ffffff"/>
  <text xml:space="preserve" text-anchor="start" font-family="'Trebuchet MS', Gadget, sans-serif" font-size="26" id="svg_15" y="26.624995" x="16.94999" stroke-opacity="null" stroke-width="0" stroke="#000" fill="#0052a4">E</text>
  <text xml:space="preserve" text-anchor="start" font-family="'Trebuchet MS', Gadget, sans-serif" font-size="26" id="svg_16" y="27.375001" x="31.3872" stroke-opacity="null" stroke-width="0" stroke="#000" fill="#ffffff">than</text>
  <text xml:space="preserve" text-anchor="start" font-family="'Trebuchet MS', Gadget, sans-serif" font-size="26" id="svg_18" y="27.375001" x="84.432073" stroke-opacity="null" stroke-width="0" stroke="#000" fill="#0052a4">V</text>
  <text xml:space="preserve" text-anchor="start" font-family="'Trebuchet MS', Gadget, sans-serif" font-size="26" id="svg_19" y="27.250535" x="101.859923" stroke-opacity="null" stroke-width="0" stroke="#000" fill="#ffffff">ernon</text>
 </g>
</svg>